/* XPM */
static char * close_xpm[] = {
"20 20 2 1",
" 	c None",
".	c #C6C6C6",
"..                ..",
"...              ...",
" ...            ... ",
"  ...          ...  ",
"   ...        ...   ",
"    ...      ...    ",
"     ...    ...     ",
"      ...  ...      ",
"       ......       ",
"        ....        ",
"        ....        ",
"       ......       ",
"      ...  ...      ",
"     ...    ...     ",
"    ...      ...    ",
"   ...        ...   ",
"  ...          ...  ",
" ...            ... ",
"...              ...",
"..                .."};
